<svg xmlns="http://www.w3.org/2000/svg" width="980" height="390" viewBox="0 0 980 390">
  <style>text{font:15px Arial,sans-serif;fill:#172033} .entity{fill:#eef4ff;stroke:#4169a1;stroke-width:2} .head{fill:#4169a1} .headtext{fill:white;font-weight:bold} .line{stroke:#425466;stroke-width:2;fill:none} .rel{font-size:13px;fill:#425466}</style>
  <rect class="entity" x="35" y="120" width="270" height="190" rx="6"/><rect class="head" x="35" y="120" width="270" height="36" rx="6"/><text class="headtext" x="170" y="144" text-anchor="middle">CONSUMER</text>
  <text x="55" y="185">uuid id PK</text><text x="55" y="215">varchar personal_identity_code UK</text><text x="55" y="245">timestamptz created_at</text>
  <rect class="entity" x="355" y="70" width="300" height="250" rx="6"/><rect class="head" x="355" y="70" width="300" height="36" rx="6"/><text class="headtext" x="505" y="94" text-anchor="middle">FINANCING_REQUEST</text>
  <text x="375" y="135">uuid id PK</text><text x="375" y="165">uuid consumer_id FK</text><text x="375" y="195">uuid client_request_id UK</text><text x="375" y="225">varchar_array extract_purposes</text><text x="375" y="255">timestamptz requested_at</text><text x="375" y="285">timestamptz completed_at</text>
  <rect class="entity" x="705" y="120" width="240" height="190" rx="6"/><rect class="head" x="705" y="120" width="240" height="36" rx="6"/><text class="headtext" x="825" y="144" text-anchor="middle">CREDIT_EXTRACT</text>
  <text x="725" y="185">uuid id PK</text><text x="725" y="215">uuid financing_request_id FK_UK</text><text x="725" y="245">uuid extract_reference UK</text><text x="725" y="275">jsonb register_data</text>
  <path class="line" d="M305 195 H355"/><text class="rel" x="330" y="185" text-anchor="middle">has</text><path class="line" d="M655 195 H705"/><text class="rel" x="680" y="185" text-anchor="middle">produces</text>
</svg>
